<?xml version="1.0" standalone="no"?>
<!DOCTYPE svg PUBLIC "-//W3C//DTD SVG 20010904//EN"
 "http://www.w3.org/TR/2001/REC-SVG-20010904/DTD/svg10.dtd">
<svg version="1.0" xmlns="http://www.w3.org/2000/svg"
 width="512.000000pt" height="512.000000pt" viewBox="0 0 512.000000 512.000000"
 preserveAspectRatio="xMidYMid meet">
<metadata>
Created by potrace 1.11, written by Peter Selinger 2001-2013
</metadata>
<g transform="translate(0.000000,512.000000) scale(0.100000,-0.100000)"
fill="#000000" stroke="none">
<path d="M3868 4426 c-1 -2 -37 -6 -78 -9 -137 -11 -402 -71 -466 -105 -10 -5
-23 -11 -29 -12 -47 -10 -245 -105 -256 -122 -3 -5 -9 -9 -13 -9 -9 2 -142
-83 -191 -121 -125 -98 -288 -253 -389 -368 -21 -25 -75 -84 -118 -132 -44
-49 -77 -88 -74 -88 3 0 -11 -17 -31 -38 -21 -22 -58 -63 -83 -92 -25 -30 -63
-75 -85 -101 -76 -88 -239 -283 -265 -317 -22 -29 -93 -113 -107 -127 -7 -7
-10 -15 -7 -18 5 -4 -79 -28 -116 -32 -8 -1 -45 -10 -83 -19 -37 -8 -79 -18
-95 -21 -15 -3 -38 -7 -52 -10 -14 -3 -36 -8 -50 -11 -14 -2 -36 -7 -50 -11
-14 -3 -29 -7 -35 -9 -5 -1 -26 -5 -45 -9 -19 -3 -53 -11 -75 -16 -22 -5 -53
-12 -70 -15 -27 -5 -219 -49 -256 -58 -8 -2 -33 -12 -55 -22 -21 -9 -44 -18
-50 -19 -47 -11 -178 -122 -396 -339 l-248 -245 0 -142 0 -142 81 7 c45 4 89
9 98 11 9 1 52 6 96 9 44 4 98 9 120 11 68 7 147 15 210 20 33 3 76 8 95 10
19 2 63 7 98 10 l63 6 -14 -28 c-9 -18 -14 -55 -13 -103 3 -129 20 -161 145
-285 55 -55 101 -103 101 -107 0 -4 -80 -88 -179 -187 -176 -175 -178 -179
-174 -216 2 -20 10 -44 18 -52 8 -8 15 -11 15 -7 0 5 5 3 12 -4 33 -33 59 -15
244 170 l183 181 90 -91 c50 -51 108 -103 129 -116 68 -44 176 -63 247 -43 11
3 31 9 44 12 13 4 21 3 18 -2 -3 -4 -8 -40 -12 -78 -4 -39 -9 -83 -11 -99 -3
-16 -7 -57 -9 -90 -3 -34 -7 -77 -10 -96 -2 -19 -7 -64 -10 -100 -3 -36 -8
-78 -10 -95 -2 -16 -7 -61 -10 -100 -4 -38 -10 -96 -14 -127 -4 -32 -5 -60 -3
-63 3 -3 66 -5 141 -5 l136 0 242 243 c289 289 263 261 305 328 58 92 94 186
115 299 2 14 10 50 17 80 7 30 19 82 26 115 7 33 16 74 21 90 5 17 11 46 14
65 3 19 12 62 20 95 20 86 62 274 70 314 6 28 45 84 45 65 0 -4 19 11 43 32
23 22 57 50 75 64 19 14 39 30 46 36 6 6 39 33 71 59 33 26 66 55 73 63 6 9
12 13 12 9 0 -3 13 6 29 21 16 15 48 43 72 63 38 32 103 87 150 127 8 7 24 20
35 30 12 9 48 40 79 67 74 63 105 90 131 112 135 115 330 310 397 396 12 16
27 34 32 40 39 46 93 126 88 131 -4 3 -2 6 3 6 5 0 20 20 34 45 14 25 28 45
33 45 4 0 6 4 3 9 -3 5 4 20 15 35 11 14 18 26 16 26 -3 0 6 21 19 46 45 84
114 281 140 395 2 10 6 27 8 37 4 18 13 79 26 177 9 65 6 383 -3 455 -20 148
-32 162 -152 184 -83 15 -385 32 -397 22z"/>
</g>
</svg>
